<svg xmlns="http://www.w3.org/2000/svg" width="8" height="12" viewBox="0 0 8 12" fill="none"><link xmlns="" type="text/css" rel="stylesheet" id="dark-mode-custom-link"/><link xmlns="" type="text/css" rel="stylesheet" id="dark-mode-general-link"/><style xmlns="" lang="en" type="text/css" id="dark-mode-custom-style"/><style xmlns="" lang="en" type="text/css" id="dark-mode-native-style"/><style xmlns="" lang="en" type="text/css" id="dark-mode-native-sheet"/>
    <path d="M5.34367 5.99366L1.07885 1.72884C0.934285 1.58427 0.866015 1.41561 0.874047 1.22285C0.882079 1.03009 0.95838 0.861425 1.10295 0.716855C1.24752 0.572285 1.4202 0.5 1.62099 0.5C1.82178 0.5 1.99446 0.572285 2.13903 0.716855L6.90984 5.48766C6.99016 5.56798 7.04638 5.6483 7.07851 5.72861C7.11064 5.80893 7.1267 5.89728 7.1267 5.99366C7.1267 6.09004 7.11064 6.17839 7.07851 6.2587C7.04638 6.33902 6.99016 6.41934 6.90984 6.49965L2.11494 11.2946C1.97037 11.4391 1.8017 11.5074 1.60894 11.4994C1.41618 11.4913 1.24752 11.415 1.10295 11.2705C0.95838 11.1259 0.886095 10.9532 0.886095 10.7524C0.886095 10.5516 0.95838 10.3789 1.10295 10.2344L5.34367 5.99366Z" fill="#616161" stroke="#616161" stroke-width="0.3"/>
</svg>